<svg xmlns="http://www.w3.org/2000/svg" width="220" height="220" viewBox="0 0 220 220">
  <g fill="none" stroke="#2b2420" stroke-opacity="0.05" stroke-width="2.4" stroke-linecap="round" stroke-linejoin="round">

    <!-- xícara com fumacinha -->
    <g transform="translate(18,20)">
      <path d="M0 14 h26 v14 a13 13 0 0 1 -13 13 h0 a13 13 0 0 1 -13 -13 z"/>
      <path d="M26 18 h6 a6 6 0 0 1 0 12 h-6"/>
      <path d="M6 8 q3 -6 0 -10"/>
      <path d="M14 8 q3 -6 0 -10"/>
    </g>

    <!-- talheres cruzados -->
    <g transform="translate(150,26) rotate(18)">
      <path d="M0 0 v34 M-5 0 v10 M5 0 v10 M-5 6 h10"/>
      <path d="M18 0 q-4 6 0 12 q4 4 0 8 v14"/>
    </g>

    <!-- folhinha / erva -->
    <g transform="translate(40,120)">
      <path d="M0 20 q10 -22 26 -20 q-4 16 -26 20 z"/>
      <path d="M2 18 q10 -6 20 -14"/>
    </g>

    <!-- coraçãozinho -->
    <g transform="translate(150,150)">
      <path d="M10 20 C-2 10 -2 -2 8 0 c4 1 4 5 2 8 c-2 -3 -2 -7 2 -8 c10 -2 10 10 -2 20 z"/>
    </g>

    <!-- pontinhos soltos -->
    <circle cx="100" cy="60" r="1.6" stroke-opacity="0.08" fill="#2b2420" fill-opacity="0.06"/>
    <circle cx="190" cy="100" r="1.6" stroke-opacity="0.08" fill="#2b2420" fill-opacity="0.06"/>
    <circle cx="70" cy="180" r="1.6" stroke-opacity="0.08" fill="#2b2420" fill-opacity="0.06"/>
    <circle cx="20" cy="190" r="1.6" stroke-opacity="0.08" fill="#2b2420" fill-opacity="0.06"/>
  </g>
</svg>
